<?xml version="1.0" standalone="no"?>
<!DOCTYPE svg PUBLIC "-//W3C//DTD SVG 20010904//EN"
 "http://www.w3.org/TR/2001/REC-SVG-20010904/DTD/svg10.dtd">
<svg version="1.0" xmlns="http://www.w3.org/2000/svg"
 width="3000.000000pt" height="3000.000000pt" viewBox="0 0 3000.000000 3000.000000"
 preserveAspectRatio="xMidYMid meet">
<metadata>
Created by potrace 1.14, written by Peter Selinger 2001-2017
</metadata>
<g transform="translate(0.000000,3000.000000) scale(0.100000,-0.100000)"
fill="#000000" stroke="none">
<path d="M0 15000 l0 -15000 15000 0 15000 0 0 15000 0 15000 -15000 0 -15000
0 0 -15000z m10797 5930 c30 -11 79 -35 107 -55 77 -53 2711 -2694 2783 -2790
248 -332 382 -729 414 -1227 16 -248 -12 -599 -65 -827 -8 -36 -13 -68 -10
-73 3 -4 253 -229 555 -499 487 -434 552 -489 567 -477 27 22 1154 1028 1190
1062 l33 32 -31 85 c-130 352 -158 833 -74 1280 66 354 210 742 407 1094 194
347 427 648 751 970 481 478 1019 815 1611 1009 513 168 1049 201 1489 90 546
-138 976 -485 1201 -969 130 -279 188 -561 188 -910 0 -437 -91 -844 -288
-1290 -501 -1133 -1598 -2084 -2735 -2370 -298 -75 -519 -100 -795 -92 -258 7
-468 44 -683 119 -91 32 -92 32 -111 13 -10 -11 -229 -256 -486 -545 -257
-289 -486 -543 -507 -566 l-39 -41 1753 -1562 c999 -891 1775 -1590 1803
-1625 113 -139 160 -275 160 -461 0 -97 -5 -134 -24 -195 -56 -180 -97 -233
-473 -606 -340 -338 -378 -368 -533 -420 -108 -36 -267 -44 -381 -20 -118 26
-246 92 -329 169 -39 36 -749 828 -1580 1760 -830 933 -1513 1696 -1516 1696
-4 1 -688 -761 -1520 -1691 -832 -931 -1533 -1713 -1558 -1737 -86 -83 -214
-153 -351 -192 -26 -7 -99 -13 -170 -13 -103 -1 -138 3 -200 23 -106 33 -198
83 -282 156 -120 103 -611 606 -650 665 -182 279 -150 662 76 909 17 18 815
735 1774 1593 1589 1423 1742 1562 1730 1579 -7 10 -215 245 -463 524 -450
505 -450 505 -485 501 -19 -3 -101 -16 -181 -30 -213 -37 -395 -50 -614 -43
-524 16 -952 154 -1310 420 -100 75 -2707 2674 -2772 2765 -60 83 -85 151 -86
233 -1 83 33 157 102 222 136 128 321 153 492 67 31 -16 392 -369 1224 -1199
879 -876 1194 -1185 1237 -1209 151 -89 292 -75 406 38 125 125 156 311 80
473 -32 67 -107 148 -1083 1182 -577 611 -1089 1153 -1138 1205 -108 114 -149
174 -177 260 -41 122 -10 242 87 337 116 113 250 128 406 46 78 -41 -25 54
1447 -1337 564 -533 1049 -985 1078 -1003 164 -105 378 -83 516 54 116 114
129 266 35 416 -20 33 -471 491 -1209 1232 -1109 1112 -1178 1184 -1204 1243
-61 139 -51 282 26 403 93 146 237 201 385 149z"/>
</g>
</svg>
