<?xml version="1.0" encoding="UTF-8" standalone="no"?>
<!DOCTYPE svg PUBLIC "-//W3C//DTD SVG 1.1//EN" "http://www.w3.org/Graphics/SVG/1.1/DTD/svg11.dtd">
<svg width="100%" height="100%" viewBox="0 0 512 512" version="1.1" xmlns="http://www.w3.org/2000/svg" xmlns:xlink="http://www.w3.org/1999/xlink" xml:space="preserve" xmlns:serif="http://www.serif.com/" style="fill-rule:evenodd;clip-rule:evenodd;stroke-linejoin:round;stroke-miterlimit:2;">
    <path d="M512,148.491L512,363.509C512,378.343 499.957,390.386 485.123,390.386L26.877,390.386C12.043,390.386 -0,378.343 -0,363.509L-0,148.491C-0,133.657 12.043,121.614 26.877,121.614L485.123,121.614C499.957,121.614 512,133.657 512,148.491ZM441.935,173.277C441.935,165.934 435.973,159.973 428.631,159.973L410.893,159.973C403.55,159.973 397.589,165.934 397.589,173.277L397.589,338.723C397.589,346.066 403.55,352.027 410.893,352.027L428.631,352.027C435.973,352.027 441.935,346.066 441.935,338.723L441.935,173.277ZM309.537,283.796C309.537,269.702 303.077,258.545 290.158,250.323C286.896,248.235 281.61,245.429 274.302,241.906L263.145,236.425L253.945,231.727L250.617,229.378C248.268,227.421 247.093,225.267 247.093,222.918C247.093,220.178 248.17,217.992 250.323,216.361C252.477,214.73 255.511,213.914 259.426,213.914C268.169,213.914 277.891,217.829 288.592,225.659L306.601,198.45C296.552,189.968 286.113,184.421 275.281,181.811C275.281,181.811 274.843,165.662 269.33,162.432C263.816,159.202 253.665,159.105 248.151,162.432C242.638,165.76 242.2,182.399 242.2,182.399C232.021,185.139 224.028,190.131 218.221,197.373C212.413,204.616 209.51,213.392 209.51,223.701C209.51,238.187 215.97,249.932 228.889,258.936C231.76,261.024 236.98,264.026 244.549,267.941L258.643,274.792C262.427,276.749 265.102,278.511 266.668,280.077C268.234,281.643 269.017,283.6 269.017,285.949C269.017,288.82 267.875,291.137 265.592,292.898C263.308,294.66 260.209,295.541 256.294,295.541C250.682,295.541 245.071,293.812 239.459,290.354C233.848,286.895 229.15,282.491 225.365,277.141L202.463,301.022C212.25,315.768 225.365,324.968 241.808,328.622C241.808,328.622 242.246,345.914 247.76,349.372C253.273,352.83 263.425,352.993 268.938,349.372C274.452,345.75 274.89,327.644 274.89,327.644C285.46,324.773 293.877,319.455 300.141,311.69C306.405,303.926 309.537,294.628 309.537,283.796ZM114.411,173.277C114.411,165.934 108.45,159.973 101.107,159.973L83.369,159.973C76.027,159.973 70.065,165.934 70.065,173.277L70.065,338.723C70.065,346.066 76.027,352.027 83.369,352.027L101.107,352.027C108.45,352.027 114.411,346.066 114.411,338.723L114.411,173.277Z"/>
</svg>
