<?xml version="1.0" encoding="UTF-8" standalone="no"?>
<!DOCTYPE svg PUBLIC "-//W3C//DTD SVG 1.1//EN" "http://www.w3.org/Graphics/SVG/1.1/DTD/svg11.dtd">
<svg width="100%" height="100%" viewBox="0 0 512 512" version="1.1" xmlns="http://www.w3.org/2000/svg" xmlns:xlink="http://www.w3.org/1999/xlink" xml:space="preserve" xmlns:serif="http://www.serif.com/" style="fill-rule:evenodd;clip-rule:evenodd;stroke-linejoin:round;stroke-miterlimit:2;">
    <g transform="matrix(1.38176,0,0,1.38176,-43.9491,-94.5989)">
        <g transform="matrix(115.616,0,0,115.616,73.1938,174.24)">
            <path d="M0.455,-0.515L0.455,-0.556L0.64,-0.556L0.64,-0L0.455,-0L0.455,-0.039C0.41,-0.004 0.358,0.014 0.299,0.014C0.22,0.014 0.155,-0.014 0.104,-0.07C0.053,-0.127 0.028,-0.197 0.028,-0.28C0.028,-0.363 0.054,-0.432 0.105,-0.487C0.156,-0.542 0.221,-0.57 0.299,-0.57C0.36,-0.57 0.412,-0.552 0.455,-0.515ZM0.337,-0.165C0.369,-0.165 0.396,-0.176 0.418,-0.198C0.44,-0.221 0.451,-0.248 0.451,-0.279C0.451,-0.31 0.44,-0.336 0.418,-0.358C0.396,-0.38 0.369,-0.391 0.337,-0.391C0.305,-0.391 0.278,-0.38 0.257,-0.358C0.235,-0.336 0.224,-0.31 0.224,-0.279C0.224,-0.248 0.235,-0.221 0.257,-0.198C0.279,-0.176 0.306,-0.165 0.337,-0.165Z" style="fill-rule:nonzero;"/>
        </g>
        <g transform="matrix(115.616,0,0,115.616,153.084,174.24)">
            <path d="M0.318,0.014C0.232,0.014 0.165,-0.009 0.117,-0.054C0.068,-0.099 0.044,-0.164 0.044,-0.247L0.044,-0.556L0.241,-0.556L0.241,-0.244C0.241,-0.221 0.248,-0.202 0.262,-0.187C0.276,-0.172 0.295,-0.165 0.318,-0.165C0.342,-0.165 0.361,-0.172 0.375,-0.187C0.389,-0.201 0.396,-0.22 0.396,-0.244L0.396,-0.556L0.593,-0.556L0.593,-0.247C0.593,-0.164 0.569,-0.099 0.521,-0.054C0.472,-0.009 0.405,0.014 0.318,0.014Z" style="fill-rule:nonzero;"/>
        </g>
        <g transform="matrix(115.616,0,0,115.616,226.732,174.24)">
            <path d="M0.45,-0.188L0.5,-0.031C0.447,-0.001 0.385,0.014 0.316,0.014C0.174,0.014 0.103,-0.064 0.103,-0.22L0.103,-0.394L0.021,-0.394L0.021,-0.556L0.105,-0.556L0.105,-0.753L0.3,-0.753L0.3,-0.556L0.468,-0.556L0.468,-0.394L0.3,-0.394L0.3,-0.248C0.3,-0.193 0.322,-0.165 0.365,-0.165C0.388,-0.165 0.416,-0.173 0.45,-0.188Z" style="fill-rule:nonzero;"/>
        </g>
        <g transform="matrix(115.616,0,0,115.616,283.962,174.24)">
            <path d="M0.638,-0.278C0.638,-0.195 0.61,-0.126 0.553,-0.069C0.496,-0.012 0.423,0.016 0.332,0.016C0.241,0.016 0.168,-0.012 0.111,-0.069C0.055,-0.126 0.027,-0.195 0.027,-0.278C0.027,-0.361 0.055,-0.43 0.111,-0.487C0.168,-0.544 0.241,-0.572 0.332,-0.572C0.423,-0.572 0.496,-0.544 0.553,-0.487C0.61,-0.43 0.638,-0.361 0.638,-0.278ZM0.332,-0.168C0.363,-0.168 0.39,-0.179 0.41,-0.2C0.432,-0.221 0.442,-0.247 0.442,-0.279C0.442,-0.31 0.432,-0.336 0.41,-0.357C0.39,-0.378 0.363,-0.388 0.332,-0.388C0.301,-0.388 0.276,-0.378 0.255,-0.357C0.234,-0.336 0.223,-0.31 0.223,-0.279C0.223,-0.247 0.234,-0.221 0.255,-0.2C0.276,-0.179 0.301,-0.168 0.332,-0.168Z" style="fill-rule:nonzero;"/>
        </g>
    </g>
    <g transform="matrix(3.46163,0,0,3.46163,-133.244,-130.124)">
        <g transform="matrix(115.616,0,0,115.616,73.1938,174.24)">
            <path d="M0.276,-0L0.068,-0L0.068,-0.739L0.611,-0.739L0.611,-0.545L0.276,-0.545L0.276,-0.446L0.573,-0.446L0.573,-0.254L0.276,-0.254L0.276,-0Z" style="fill-rule:nonzero;"/>
        </g>
    </g>
    <g transform="matrix(1,0,0,1.02485,0,-11.7537)">
        <rect x="61.66" y="184.44" width="51.001" height="288.591"/>
    </g>
    <g transform="matrix(1,0,0,1.02485,337.678,-11.7537)">
        <rect x="61.66" y="184.44" width="51.001" height="288.591"/>
    </g>
</svg>
