<?xml version="1.0" encoding="UTF-8" standalone="no"?>
<!DOCTYPE svg PUBLIC "-//W3C//DTD SVG 1.1//EN" "http://www.w3.org/Graphics/SVG/1.1/DTD/svg11.dtd">
<svg width="100%" height="100%" viewBox="0 0 512 512" version="1.1" xmlns="http://www.w3.org/2000/svg" xmlns:xlink="http://www.w3.org/1999/xlink" xml:space="preserve" xmlns:serif="http://www.serif.com/" style="fill-rule:evenodd;clip-rule:evenodd;stroke-linejoin:round;stroke-miterlimit:2;">
    <g transform="matrix(1.02303,0,0,1.02303,-6.29717,2.99631)">
        <g transform="matrix(0.275192,0,0,0.271667,-57.1821,-198.489)">
            <path d="M1361.86,1522.28C1253.04,1478.75 1173.56,1342.61 1173.56,1181.58C1173.56,985.514 1291.38,826.335 1436.51,826.335C1581.64,826.335 1699.46,985.514 1699.46,1181.58C1699.46,1342.61 1619.99,1478.75 1511.17,1522.28L1559.82,2373.94C1559.82,2419.01 1523.23,2455.59 1478.16,2455.59L1394.86,2455.59C1349.79,2455.59 1313.21,2419.01 1313.21,2373.94L1361.86,1522.28Z"/>
            <path d="M1539.47,949.942C1600.49,985.658 1643.84,1075.55 1643.84,1180.68C1643.84,1285.81 1600.49,1375.7 1539.47,1411.42C1576.07,1356.79 1599.45,1273.69 1599.45,1180.68C1599.45,1087.67 1576.07,1004.57 1539.47,949.942Z"/>
        </g>
        <g transform="matrix(0.275192,0,0,0.275192,-228.12,-212.885)">
            <path d="M1379.09,917.201C1379.09,890.084 1391.1,868.068 1418.22,868.068C1445.34,868.068 1457.35,890.084 1457.35,917.201C1457.35,917.201 1467.35,1270.19 1467.35,1270.19C1467.35,1296.2 1488.47,1317.32 1514.49,1317.32C1540.5,1317.32 1551.62,1296.2 1551.62,1270.19L1551.62,917.201C1551.62,891.214 1572.72,870.116 1598.71,870.116C1624.69,870.116 1635.79,891.214 1635.79,917.201L1635.79,1316.36C1635.79,1409.35 1566.41,1490.89 1492.48,1536.17L1541.53,2394.81C1541.53,2439.87 1504.94,2476.46 1459.87,2476.46L1376.57,2476.46C1331.5,2476.46 1294.92,2439.87 1294.92,2394.81L1343.96,1536.17C1270.03,1490.89 1200.65,1409.35 1200.65,1316.36L1200.65,917.201L1200.65,916.897C1200.81,891.05 1211.85,870.116 1237.74,870.116C1263.72,870.116 1284.82,891.214 1284.82,917.201L1284.82,1270.19C1284.82,1296.2 1295.94,1317.32 1321.95,1317.32C1347.97,1317.32 1369.09,1296.2 1369.09,1270.19L1379.09,917.201Z"/>
        </g>
    </g>
</svg>
