<?xml version="1.0" encoding="UTF-8" standalone="no"?>
<!DOCTYPE svg PUBLIC "-//W3C//DTD SVG 1.1//EN" "http://www.w3.org/Graphics/SVG/1.1/DTD/svg11.dtd">
<svg width="100%" height="100%" viewBox="0 0 512 512" version="1.1" xmlns="http://www.w3.org/2000/svg" xmlns:xlink="http://www.w3.org/1999/xlink" xml:space="preserve" xmlns:serif="http://www.serif.com/" style="fill-rule:evenodd;clip-rule:evenodd;stroke-linejoin:round;stroke-miterlimit:2;">
    <g transform="matrix(1.70028,0,0,1.70028,-300.155,-192.06)">
        <path d="M356.082,115.775C336.94,112.019 317.251,112.019 298.109,115.775C291.517,129.461 288.234,143.901 288.259,159.092C276.566,163.44 265.687,169.721 256.076,177.673C242.932,170.056 228.786,165.679 213.636,164.545C200.813,179.244 190.968,196.296 184.65,214.751C193.207,227.303 204.07,237.366 217.239,244.94C215.158,257.24 215.158,269.802 217.239,282.102C204.07,289.676 193.207,299.739 184.65,312.291C190.968,330.746 200.813,347.798 213.636,362.498C228.786,361.363 242.932,356.987 256.076,349.369C265.687,357.321 276.566,363.602 288.259,367.95C288.234,383.142 291.517,397.581 298.109,411.268C317.251,415.023 336.94,415.023 356.082,411.268C362.674,397.581 365.957,383.142 365.932,367.95C377.624,363.602 388.503,357.321 398.115,349.369C411.259,356.987 425.405,361.363 440.554,362.498C453.378,347.798 463.222,330.746 469.541,312.291C460.984,299.739 450.121,289.676 436.952,282.102C439.032,269.802 439.032,257.24 436.952,244.94C450.121,237.366 460.984,227.303 469.541,214.751C463.222,196.296 453.378,179.244 440.554,164.545C425.405,165.679 411.259,170.056 398.115,177.673C388.503,169.721 377.624,163.44 365.932,159.092C365.957,143.901 362.674,129.461 356.082,115.775ZM327.095,218.352C352.025,218.352 372.264,238.592 372.264,263.521C372.264,288.45 352.025,308.69 327.095,308.69C302.166,308.69 281.926,288.45 281.926,263.521C281.926,238.592 302.166,218.352 327.095,218.352Z"/>
    </g>
</svg>
